<svg xmlns="http://www.w3.org/2000/svg" viewBox="0 0 2783.04 365.54"><defs><style>.cls-1{fill:#fff;}.cls-2{fill:#05a4db;}</style></defs><title>logo-white</title><g id="Layer_2" data-name="Layer 2"><g id="Layer_1-2" data-name="Layer 1"><path class="cls-1" d="M653.57,218c0,45.23-35.05,77.61-83.84,77.61-47.79,0-80.63-31.19-82-77.22h57.07c.67,15.68,10.42,26.09,25,26.09,15.2,0,25.86-11.19,25.86-27.44s-11-26.33-28.35-26.33H531.77V178.27L568,118.74H493.34V68.05H645.92V78.27l-44.63,71.44C633.17,157.71,653.57,183.52,653.57,218Z"/><path class="cls-1" d="M654.5,179.49c0-71.22,38-116.78,97.33-116.78s97.33,45.56,97.33,116.78c0,71-38.23,116.78-97.33,116.78S654.5,250.52,654.5,179.49Zm133.7.19c0-41-13.14-64-36.37-64-23.43,0-36.37,22.84-36.37,63.8s12.94,63.8,36.37,63.8S788.2,220.65,788.2,179.68Z"/><path class="cls-1" d="M1043.89,252.39h-87l-32,38h-62.1L1039.8,56.35h50l0,234.06h-45Zm4.38-129-60.64,78.53h57.52Z"/><path class="cls-1" d="M1366.36,290.41l2.73-138.79L1276,290.8h-19l-94-139.13,4,138.74h-55.34L1115,56.35h64.4l87.11,160.36L1353,56.35h64.39l4.07,234.06Z"/><path class="cls-1" d="M1618.36,140.92c0,49.08-37,84.85-86.72,84.85h-35v64.64H1432V56.35h99.65C1581.39,56.35,1618.36,91.84,1618.36,140.92Zm-66.28.14c0-16.64-11.2-28.4-28.17-28.4h-27.29v56.8h27.29C1540.88,169.46,1552.08,157.7,1552.08,141.06Z"/><path class="cls-1" d="M1651.23,173.63c0-70,49.73-120.71,119.28-120.71,51.5,0,91.79,28.26,107.83,73.9H1867c-15.55-39.37-51-63.11-96.47-63.11-62.86,0-108.17,45.89-108.17,109.92s45.06,109.42,108.17,109.42c46.73,0,83-25.07,98.47-67.21h11.12c-15.8,48.49-56.84,78-109.59,78C1700.71,293.84,1651.23,243.6,1651.23,173.63Z"/><path class="cls-1" d="M1904.09,56.35h11V290.41h-11Z"/><path class="cls-1" d="M2053.51,188.3l61.09,102.11h-12.46l-60.68-101.56h-71.81V290.41h-11V56.35h85c41.13,0,71.14,27.84,71.14,66.46C2114.85,157.91,2089.52,184.25,2053.51,188.3Zm-83.86-10h73.65c35.52,0,60.43-23.4,60.43-55.59,0-32.34-25.16-55.84-60.43-55.84h-73.65Z"/><path class="cls-1" d="M2126.26,173.63c0-70,49.74-120.71,119.29-120.71,51.49,0,91.78,28.26,107.83,73.9H2342c-15.54-39.37-51-63.11-96.46-63.11-62.86,0-108.17,45.89-108.17,109.92s45.06,109.42,108.17,109.42c46.72,0,83-25.07,98.47-67.21h11.11c-15.79,48.49-56.84,78-109.58,78C2175.75,293.84,2126.26,243.6,2126.26,173.63Z"/><path class="cls-1" d="M2375.28,204.14V56.35h11V203.56c0,46.22,31.85,79.08,76.58,79.08s76.48-32.86,76.48-79.08V56.35h11V204.14c0,52-36.95,89.28-87.52,89.28S2375.28,256.14,2375.28,204.14Z"/><path class="cls-1" d="M2592.88,56.35h10.95V290.41h-10.95Z"/><path class="cls-1" d="M2783,66.8h-76.32V290.41h-10.95V66.8h-76.32V56.35H2783Z"/><rect class="cls-2" x="229.06" y="156.6" width="32.36" height="76.79" rx="1.93" transform="translate(76.23 -68.82) rotate(18.87)"/><path class="cls-1" d="M240.44,239.4a18.48,18.48,0,0,1-6-1l-7.3-2.5a18.47,18.47,0,0,1-11.51-23.47l16.86-49.34A18.49,18.49,0,0,1,256,151.59l7.31,2.5a18.52,18.52,0,0,1,11.52,23.46L258,226.9A18.54,18.54,0,0,1,240.44,239.4Zm-2-12.65a6.18,6.18,0,0,0,7.83-3.84l16.86-49.34a6.17,6.17,0,0,0-3.83-7.83L252,163.25a6.16,6.16,0,0,0-7.82,3.83l-16.86,49.35a6.14,6.14,0,0,0,3.83,7.82Z"/><rect class="cls-2" x="75.85" y="157.41" width="32.36" height="76.79" rx="1.93" transform="matrix(-0.95, 0.32, -0.32, -0.95, 242.43, 351.33)"/><path class="cls-1" d="M96.83,240.21a18.52,18.52,0,0,1-17.51-12.5L62.45,178.36A18.51,18.51,0,0,1,74,154.89l7.3-2.49a18.49,18.49,0,0,1,23.47,11.51l16.87,49.34a18.53,18.53,0,0,1-11.52,23.47l-7.31,2.49A18.22,18.22,0,0,1,96.83,240.21Zm-9.59-76.49a6.23,6.23,0,0,0-2,.33L78,166.55a6.17,6.17,0,0,0-3.84,7.82L91,223.72a6.16,6.16,0,0,0,7.82,3.84l7.31-2.5a6.17,6.17,0,0,0,3.83-7.83L93.08,167.89A6.18,6.18,0,0,0,87.24,163.72Z"/><path class="cls-1" d="M71.77,165.28A100.56,100.56,0,1,1,265.44,163l-11.9-3.18a88.24,88.24,0,1,0-169.94,2Z"/><path class="cls-1" d="M95.16,83.42A6.17,6.17,0,0,1,90.4,73.36a100.54,100.54,0,0,1,155-1,6.16,6.16,0,1,1-9.43,7.92,88.24,88.24,0,0,0-136,.86A6.13,6.13,0,0,1,95.16,83.42Z"/><path class="cls-1" d="M168.64,288.74c-54.83-11.31-67.19-55.8-67.7-57.68l11.92-3.16-6,1.58,5.95-1.6c.43,1.59,11.15,39.06,58.28,48.79Z"/><path class="cls-1" d="M141.78,335a65.72,65.72,0,0,1-9.32-.7l1.74-12.2c11.41,1.64,19.53-.19,24.08-5.41,7.84-9,4.91-27.14,3.13-33.36l-2-6.9,7.11-.91c41.16-5.28,55.22-46.25,55.8-48L234,231.4c-.64,1.94-15.48,45.74-59.35,55.23,1.59,9.48,2.72,26.87-7.12,38.17C161.65,331.6,153,335,141.78,335Z"/><path class="cls-1" d="M243.27,289.46a38,38,0,1,1-38.05,38A38,38,0,0,1,243.27,289.46Zm24.5,38.33a24.55,24.55,0,1,0-24.54,24.56A24.54,24.54,0,0,0,267.77,327.79Z"/><circle class="cls-1" cx="242.94" cy="327.09" r="11.07"/><path class="cls-1" d="M136.18,334.68a5.71,5.71,0,0,1-1.23-.13C56.75,318.55,0,248.92,0,169,0,75.81,75.81,0,169,0S338,75.81,338,169a167.49,167.49,0,0,1-52.67,122.58c-1,.92-3.61,3.09-16.32,12.72a6.16,6.16,0,0,1-7.44-9.82c11.43-8.66,14.62-11.21,15.28-11.83A155.26,155.26,0,0,0,325.66,169C325.66,82.6,255.38,12.32,169,12.32S12.32,82.6,12.32,169c0,74.1,52.61,138.65,125.09,153.49a6.16,6.16,0,0,1-1.23,12.2Z"/></g></g></svg>